/* XPM */
static char * bottom_active_xpm[] = {
"8 5 4 1",
" 	c None",
".	c #000000",
"+	c #45848D",
"@	c #182627",
"........",
"........",
"........",
"++++++++",
"@@@@@@@@"};
