/* XPM */
static char * bottom_left_inactive_xpm[] = {
"24 5 5 1",
" 	c None",
".	c #182627",
"+	c #376C74",
"@	c #000000",
"#	c #AECCCE",
".+@@@@@@@@@@@@@@@@@@@@@@",
".#@@@@@@@@@@@@@@@@@@@@@@",
".#@@@@@@@@@@@@@@@@@@@@@@",
"####++++++++++++++++++++",
"@#......................"};
