/* XPM */
static char * bottom_right_active_xpm[] = {
"24 5 5 1",
" 	c None",
".	c #000000",
"+	c #45848D",
"@	c #182627",
"#	c #AECCCE",
"......................+@",
"......................#@",
"......................#@",
"++++++++++++++++++++####",
"@@@@@@@@@@@@@@@@@@@@@@#."};
