/* XPM */
static char * bottom_left_inactive_xpm[] = {
"24 5 4 1",
" 	c None",
".	c #000000",
"+	c #AECCCE",
"@	c #9EA384",
"........................",
"........................",
"........................",
"+.......................",
"++@@@@@@@@@@@@@@@@@@@@@@"};
