/* XPM */
static char * bottom_inactive_xpm[] = {
"8 5 3 1",
" 	c None",
".	c #000000",
"+	c #9EA384",
"........",
"........",
"........",
"........",
"++++++++"};
