/* XPM */
static char * close_active_xpm[] = {
"24 26 3 1",
" 	c None",
".	c #AECCCE",
"+	c #000000",
"........................",
"++++++++++++++++++++++++",
"++++++++++++++++++++++++",
"++++++++++++++++++++++++",
"++++++++++++++++++++++++",
"++++++++++++++++++++++++",
"++++++++++++++++++++++++",
"++++++.++++++++++.++++++",
"+++++++.++++++++.+++++++",
"++++++++.++++++.++++++++",
"+++++++++.++++.+++++++++",
"++++++++++.++.++++++++++",
"+++++++++++..+++++++++++",
"+++++++++++..+++++++++++",
"++++++++++.++.++++++++++",
"+++++++++.++++.+++++++++",
"++++++++.++++++.++++++++",
"+++++++.++++++++.+++++++",
"++++++.++++++++++.++++++",
"++++++++++++++++++++++++",
"++++++++++++++++++++++++",
"++++++++++++++++++++++++",
"++++++++++++++++++++++++",
"++++++++++++++++++++++++",
"++++++++++++++++++++++++",
"........................"};
