/* XPM */
static char * hide_active_xpm[] = {
"24 32 5 1",
" 	c None",
".	c #182627",
"+	c #45848D",
"@	c #000000",
"#	c #AECCCE",
"........................",
"++++++++++++++++++++++++",
"@@@@@@@@@@@@@@@@@@@@@@@@",
"@@@@@@@@@@@@@@@@@@@@@@@@",
"@@@@@@@@@@@@@@@@@@@@@@@@",
"@@@@@@@@@@@@@@@@@@@@@@@@",
"@@@@@@@@@@@@@@@@@@@@@@@@",
"@@@@@@@@@@@@@@@@@@@@@@@@",
"@@@@#@@@@@@@@@@@@@@#@@@@",
"@@@@@#@@@@@@@@@@@@#@@@@@",
"@@@@@@#@@@@@@@@@@#@@@@@@",
"@@@@@@@#@@@@@@@@#@@@@@@@",
"@@@@@@@@#@@@@@@#@@@@@@@@",
"@@@@@@@@@#@@@@#@@@@@@@@@",
"@@@@@@@@@@#@@#@@@@@@@@@@",
"@@@@@@@@@@@##@@@@@@@@@@@",
"@@@@#@@@@@@@@@@@@@@#@@@@",
"@@@@@#@@@@@@@@@@@@#@@@@@",
"@@@@@@#@@@@@@@@@@#@@@@@@",
"@@@@@@@#@@@@@@@@#@@@@@@@",
"@@@@@@@@#@@@@@@#@@@@@@@@",
"@@@@@@@@@#@@@@#@@@@@@@@@",
"@@@@@@@@@@#@@#@@@@@@@@@@",
"@@@@@@@@@@@##@@@@@@@@@@@",
"@@@@@@@@@@@@@@@@@@@@@@@@",
"@@@@@@@@@@@@@@@@@@@@@@@@",
"@@@@@@@@@@@@@@@@@@@@@@@@",
"@@@@@@@@@@@@@@@@@@@@@@@@",
"@@@@@@@@@@@@@@@@@@@@@@@@",
"@@@@@@@@@@@@@@@@@@@@@@@@",
"++++++++++++++++++++++++",
"........................"};
