/* XPM */
static char * maximize_prelight_xpm[] = {
"24 26 6 1",
" 	c None",
".	c #182627",
"+	c #45848D",
"@	c #000000",
"#	c #FF7751",
"$	c #AECCCE",
"........................",
"++++++++++++++++++++++++",
"@@@@@@@@@@@@@@@@@@@@@@@@",
"@@@@@@@@@@@@@@@@@@@@@@@@",
"@@@@@@@@@@@@@@@@@@@@@@@@",
"@@@@@@@@@@@##@@@@@@@@@@@",
"@@@@@@@@@@#@@#@@@@@@@@@@",
"@@@@@@@@@#@@@@#@@@@@@@@@",
"@@@@@@@@@@@@@@@@@@@@@@@@",
"@@@@@@@@@@@@@@@@@@@@@@@@",
"@@@@@@#@@$$$$$$@@#@@@@@@",
"@@@@@#@@@$@@@@$@@@#@@@@@",
"@@@@#@@@@$@@@@$@@@@#@@@@",
"@@@@#@@@@$@@@@$@@@@#@@@@",
"@@@@@#@@@$@@@@$@@@#@@@@@",
"@@@@@@#@@$$$$$$@@#@@@@@@",
"@@@@@@@@@@@@@@@@@@@@@@@@",
"@@@@@@@@@@@@@@@@@@@@@@@@",
"@@@@@@@@@#@@@@#@@@@@@@@@",
"@@@@@@@@@@#@@#@@@@@@@@@@",
"@@@@@@@@@@@##@@@@@@@@@@@",
"@@@@@@@@@@@@@@@@@@@@@@@@",
"@@@@@@@@@@@@@@@@@@@@@@@@",
"@@@@@@@@@@@@@@@@@@@@@@@@",
"++++++++++++++++++++++++",
"........................"};
