/* XPM */
static char * maximize_toggled_active_xpm[] = {
"24 26 3 1",
" 	c None",
".	c #9EA384",
"+	c #000000",
"........................",
"++++++++++++++++++++++++",
"++++++++++++++++++++++++",
"++++++++++++++++++++++++",
"++++++++++++++++++++++++",
"++++++++++++++++++++++++",
"+++++++++.++++.+++++++++",
"++++++++++.++.++++++++++",
"+++++++++++..+++++++++++",
"++++++++++++++++++++++++",
"+++++.+++......+++.+++++",
"++++++.++.++++.++.++++++",
"+++++++.+.++++.+.+++++++",
"+++++++.+.++++.+.+++++++",
"++++++.++.++++.++.++++++",
"+++++.+++......+++.+++++",
"++++++++++++++++++++++++",
"+++++++++++..+++++++++++",
"++++++++++.++.++++++++++",
"+++++++++.++++.+++++++++",
"++++++++++++++++++++++++",
"++++++++++++++++++++++++",
"++++++++++++++++++++++++",
"++++++++++++++++++++++++",
"++++++++++++++++++++++++",
"........................"};
