/* XPM */
static char * maximize_prelight_xpm[] = {
"24 26 4 1",
" 	c None",
".	c #AECCCE",
"+	c #000000",
"@	c #FF7751",
"........................",
"++++++++++++++++++++++++",
"++++++++++++++++++++++++",
"++++++++++++++++++++++++",
"++++++++++++++++++++++++",
"+++++++++++@@+++++++++++",
"++++++++++@++@++++++++++",
"+++++++++@++++@+++++++++",
"++++++++++++++++++++++++",
"++++++++++++++++++++++++",
"++++++@++......++@++++++",
"+++++@+++.++++.+++@+++++",
"++++@++++.++++.++++@++++",
"++++@++++.++++.++++@++++",
"+++++@+++.++++.+++@+++++",
"++++++@++......++@++++++",
"++++++++++++++++++++++++",
"++++++++++++++++++++++++",
"+++++++++@++++@+++++++++",
"++++++++++@++@++++++++++",
"+++++++++++@@+++++++++++",
"++++++++++++++++++++++++",
"++++++++++++++++++++++++",
"++++++++++++++++++++++++",
"++++++++++++++++++++++++",
"........................"};
