/* XPM */
static char * right_inactive_xpm[] = {
"2 21 3 1",
" 	c None",
".	c #376C74",
"+	c #182627",
".+",
".+",
".+",
".+",
".+",
".+",
".+",
".+",
".+",
".+",
".+",
".+",
".+",
".+",
".+",
".+",
".+",
".+",
".+",
".+",
".+"};
