/* XPM */
static char * title_1_active_xpm[] = {
"2 32 4 1",
" 	c None",
".	c #182627",
"+	c #45848D",
"@	c #000000",
"..",
"++",
"@@",
"@@",
"@@",
"@@",
"@@",
"@@",
"@@",
"@@",
"@@",
"@@",
"@@",
"@@",
"@@",
"@@",
"@@",
"@@",
"@@",
"@@",
"@@",
"@@",
"@@",
"@@",
"@@",
"@@",
"@@",
"@@",
"@@",
"@@",
"++",
".."};
