/* XPM */
static char * top_right_active_xpm[] = {
"6 32 5 1",
" 	c None",
".	c #182627",
"+	c #AECCCE",
"@	c #000000",
"#	c #45848D",
"....+@",
"##++++",
"@@@@+.",
"@@@@+.",
"@@@@#.",
"@@@@#.",
"@@@@#.",
"@@@@#.",
"@@@@#.",
"@@@@#.",
"@@@@#.",
"@@@@#.",
"@@@@#.",
"@@@@#.",
"@@@@#.",
"@@@@#.",
"@@@@#.",
"@@@@#.",
"@@@@#.",
"@@@@#.",
"@@@@#.",
"@@@@#.",
"@@@@#.",
"@@@@#.",
"@@@@#.",
"@@@@#.",
"@@@@#.",
"@@@@#.",
"@@@@+.",
"@@@@+.",
"##++++",
"....+."};
