/* XPM */
static char * top_left_active_xpm[] = {
"6 32 5 1",
" 	c None",
".	c #000000",
"+	c #AECCCE",
"@	c #182627",
"#	c #45848D",
".+@@@@",
"++++##",
"@+....",
"@+....",
"@#....",
"@#....",
"@#....",
"@#....",
"@#....",
"@#....",
"@#....",
"@#....",
"@#....",
"@#....",
"@#....",
"@#....",
"@#....",
"@#....",
"@#....",
"@#....",
"@#....",
"@#....",
"@#....",
"@#....",
"@#....",
"@#....",
"@#....",
"@#....",
"@+....",
"@+....",
"++++##",
"@+@@@@"};
